<?xml version="1.0" standalone="no"?>
<!DOCTYPE svg PUBLIC "-//W3C//DTD SVG 20010904//EN"
 "http://www.w3.org/TR/2001/REC-SVG-20010904/DTD/svg10.dtd">
<svg version="1.0" xmlns="http://www.w3.org/2000/svg"
 width="1024.000000pt" height="631.000000pt" viewBox="0 0 1024.000000 631.000000"
 preserveAspectRatio="xMidYMid meet">

<g transform="translate(0.000000,631.000000) scale(0.100000,-0.100000)"
fill="#000000" stroke="none">
<path d="M0 3155 l0 -3155 5120 0 5120 0 0 3155 0 3155 -5120 0 -5120 0 0
-3155z m4286 2514 c217 -38 484 -186 731 -406 l83 -74 78 69 c218 194 414 317
618 389 70 24 93 27 209 28 123 0 133 -2 188 -28 157 -78 250 -257 277 -535
14 -140 2 -336 -31 -512 -11 -58 -22 -119 -26 -137 l-5 -31 73 -22 c111 -33
262 -95 375 -154 341 -178 511 -386 491 -603 -18 -196 -217 -406 -536 -563
-109 -55 -253 -113 -348 -141 -48 -14 -49 -17 -29 -104 29 -120 47 -293 47
-440 0 -359 -96 -587 -286 -680 -82 -41 -223 -47 -343 -17 -204 52 -440 192
-665 394 l-78 71 -24 -19 c-12 -10 -58 -50 -101 -87 -199 -172 -434 -305 -619
-353 -84 -21 -116 -25 -202 -21 -90 3 -110 7 -167 36 -118 58 -201 176 -247
348 -44 163 -36 474 17 732 13 63 23 115 21 116 -1 0 -54 18 -117 39 -144 47
-356 148 -469 223 -127 84 -257 219 -306 317 -39 77 -40 82 -40 185 0 101 2
109 35 175 101 203 402 409 768 528 l133 43 -5 30 c-3 17 -17 89 -31 160 -53
268 -44 582 21 755 43 113 122 213 203 254 81 42 195 55 307 35z m-1087 -4374
c54 -32 74 -66 74 -127 1 -62 -20 -108 -57 -128 l-26 -14 24 -25 c30 -33 37
-56 46 -156 4 -44 10 -88 15 -98 7 -16 3 -18 -25 -15 -40 4 -45 17 -55 131 -5
60 -12 84 -29 104 -22 26 -26 26 -142 27 l-119 1 -3 -133 -3 -133 -27 3 -27 3
-3 280 c-1 154 0 286 3 293 4 11 36 13 163 11 135 -4 162 -7 191 -24z m2218
-226 l168 -252 3 252 2 251 30 0 30 0 0 -296 0 -295 -36 3 c-34 3 -40 10 -200
251 l-164 249 0 -251 0 -251 -30 0 -30 0 0 295 0 295 30 0 c28 0 41 -16 197
-251z m1087 211 c0 -31 -4 -35 -27 -38 -25 -3 -27 -1 -27 38 0 39 2 41 27 38
23 -3 27 -7 27 -38z m-1704 -67 l0 -58 37 0 c32 0 39 -4 41 -22 3 -21 -1 -23
-37 -23 l-41 0 0 -154 c0 -85 3 -161 6 -170 4 -10 18 -16 40 -16 27 0 34 -4
34 -19 0 -36 -77 -44 -110 -11 -18 18 -20 33 -20 195 l0 175 -31 0 c-26 0 -30
3 -27 23 2 16 10 22 28 22 23 0 25 4 28 58 3 53 5 57 27 57 24 0 25 -3 25 -57z
m1490 0 l0 -58 37 0 c31 0 38 -4 38 -20 0 -16 -8 -21 -38 -23 l-37 -3 2 -167
3 -167 38 -3 c28 -2 37 -8 37 -22 0 -34 -73 -42 -111 -11 -23 19 -24 24 -27
194 l-3 176 -27 3 c-39 4 -38 43 1 43 26 -1 27 1 27 57 0 58 0 58 30 58 30 0
30 0 30 -57z m-2649 -68 c55 -29 98 -113 99 -192 0 -23 -1 -23 -164 -23 l-163
0 7 -37 c9 -53 26 -81 63 -103 63 -39 168 -13 183 45 5 19 12 25 35 25 37 0
37 -16 0 -67 -76 -106 -261 -92 -317 24 -11 22 -20 68 -22 111 -4 63 -1 79 23
127 14 30 38 63 53 74 59 41 140 48 203 16z m459 -2 c51 -30 60 -64 60 -227
l0 -146 25 0 c18 0 25 -5 25 -19 0 -38 -87 -30 -97 9 -6 22 -18 26 -29 9 -3
-6 -25 -20 -48 -30 -136 -62 -272 42 -211 161 21 41 63 60 168 77 50 8 94 16
99 19 4 3 8 22 8 43 0 54 -28 76 -95 76 -66 0 -101 -19 -116 -62 -8 -25 -16
-33 -35 -33 -15 0 -24 6 -24 16 0 27 31 82 55 98 58 38 158 43 215 9z m453 -1
c36 -20 64 -57 73 -94 5 -25 3 -28 -20 -28 -18 0 -30 8 -40 28 -36 70 -114 92
-176 50 -49 -33 -70 -80 -70 -156 0 -110 50 -172 137 -172 51 0 98 31 114 74
11 29 18 36 40 36 26 0 27 -2 18 -32 -23 -83 -98 -132 -191 -126 -99 7 -167
82 -176 195 -12 146 91 263 217 248 24 -3 58 -13 74 -23z m1443 17 c28 -7 54
-23 69 -41 24 -28 25 -35 25 -166 0 -157 5 -182 31 -182 24 0 26 -37 2 -42
-33 -7 -61 4 -73 28 -13 23 -13 23 -39 5 -81 -56 -181 -54 -236 5 -19 21 -25
38 -25 74 0 84 48 118 199 140 41 6 78 13 82 16 17 10 9 74 -10 93 -55 55
-181 30 -196 -39 -5 -23 -12 -30 -31 -30 -30 0 -32 31 -4 77 36 60 116 84 206
62z m1267 -3 c21 -8 48 -22 59 -33 28 -24 55 -87 63 -145 l7 -48 -166 0 c-117
0 -166 -3 -166 -11 0 -33 26 -91 51 -115 22 -21 41 -28 82 -32 49 -4 57 -2 90
28 21 18 37 38 37 46 0 9 11 14 30 14 36 0 36 -3 7 -54 -63 -111 -242 -114
-314 -5 -24 36 -29 55 -31 124 -3 68 0 89 18 129 44 92 141 134 233 102z
m-765 -214 l2 -212 -25 0 -25 0 0 208 c0 115 3 212 7 216 4 4 14 5 23 4 13 -3
15 -33 18 -216z m201 40 c36 -95 68 -169 72 -165 4 5 33 75 64 157 70 185 71
188 98 184 12 -2 21 -7 20 -13 -1 -5 -36 -101 -79 -213 l-78 -203 -29 3 c-29
3 -32 10 -108 207 -43 112 -76 208 -73 213 3 5 16 8 27 6 18 -2 32 -32 86
-176z"/>
<path d="M4096 5475 c-75 -26 -127 -102 -163 -235 -14 -51 -18 -105 -17 -245
0 -182 7 -255 45 -421 l20 -91 111 23 c61 13 187 33 282 44 94 12 181 25 192
28 12 4 62 61 112 127 49 66 133 171 187 233 l97 113 -23 26 c-13 14 -71 63
-129 110 -284 229 -564 342 -714 288z"/>
<path d="M5838 5456 c-161 -55 -365 -186 -538 -344 l-64 -59 90 -105 c50 -58
133 -161 184 -229 51 -68 97 -128 101 -133 4 -5 74 -17 155 -27 143 -18 405
-62 437 -74 32 -13 77 273 77 493 0 213 -26 333 -97 434 -59 86 -179 102 -345
44z"/>
<path d="M4993 4793 c-99 -118 -153 -186 -153 -194 0 -2 117 -4 260 -4 143 0
260 2 260 5 0 15 -248 310 -260 310 -5 0 -52 -53 -107 -117z"/>
<path d="M4782 4403 l-93 -4 -63 -97 c-96 -149 -191 -312 -274 -471 l-75 -144
52 -106 c61 -122 199 -361 294 -507 l65 -101 107 -6 c138 -9 423 -9 588 0
l127 6 68 106 c83 127 196 322 282 485 l63 120 -46 90 c-110 216 -349 611
-377 622 -18 7 -588 13 -718 7z m414 -327 c123 -32 213 -108 266 -223 101
-215 -16 -474 -246 -545 -189 -58 -390 30 -479 211 -30 61 -32 72 -32 171 0
99 2 110 33 172 84 171 279 262 458 214z"/>
<path d="M4236 4339 c-93 -16 -177 -31 -187 -34 -16 -5 -15 -14 16 -103 42
-125 95 -265 105 -275 4 -5 43 54 86 130 71 127 135 235 172 291 18 28 23 28
-192 -9z"/>
<path d="M5761 4363 c2 -4 40 -69 85 -143 44 -74 101 -172 125 -217 24 -46 47
-83 51 -83 11 0 138 335 138 366 0 7 -8 15 -17 18 -15 5 -171 32 -352 62 -18
3 -32 2 -30 -3z"/>
<path d="M3720 4214 c-250 -86 -421 -179 -546 -297 -176 -165 -179 -285 -11
-452 118 -118 300 -224 527 -308 126 -46 160 -53 160 -33 0 22 98 289 159 431
28 66 51 124 51 130 0 5 -29 78 -64 160 -35 83 -83 207 -107 277 -24 71 -48
128 -54 128 -5 0 -57 -16 -115 -36z"/>
<path d="M6316 4137 c-21 -61 -70 -186 -108 -277 -38 -92 -67 -174 -64 -185 2
-11 34 -87 70 -170 36 -82 85 -203 107 -268 49 -137 29 -129 189 -70 361 133
614 327 645 494 27 143 -171 337 -486 475 -74 33 -297 114 -312 114 -1 0 -19
-51 -41 -113z"/>
<path d="M5955 3339 c-37 -68 -97 -171 -132 -228 -35 -57 -61 -106 -58 -109 9
-9 384 55 399 68 9 9 -18 98 -76 244 -67 169 -54 167 -133 25z"/>
<path d="M4135 3358 c-45 -111 -106 -290 -101 -295 11 -12 406 -75 406 -65 0
2 -33 59 -74 126 -40 66 -99 167 -130 224 -32 56 -59 102 -61 102 -1 0 -20
-42 -40 -92z"/>
<path d="M3975 2866 c-13 -40 -45 -217 -54 -298 -40 -358 28 -618 174 -674
171 -65 535 99 826 371 l49 46 -107 125 c-60 69 -146 176 -192 237 -96 128
-57 111 -318 142 -78 9 -195 27 -259 39 -80 16 -117 20 -119 12z"/>
<path d="M6072 2855 c-62 -13 -175 -30 -250 -39 -75 -9 -153 -19 -172 -23 -31
-5 -47 -21 -147 -157 -62 -83 -146 -190 -187 -237 l-75 -86 42 -40 c185 -177
437 -334 603 -377 92 -24 181 -21 234 7 79 42 135 153 161 321 22 137 0 460
-42 619 -12 44 -9 44 -167 12z"/>
<path d="M5097 2770 l-258 -5 95 -115 c52 -63 112 -135 133 -159 l39 -44 61
71 c92 107 195 241 191 250 -2 4 -119 5 -261 2z"/>
<path d="M2907 1263 c-4 -3 -7 -53 -7 -110 l0 -103 113 0 c138 0 175 14 196
76 13 37 12 44 -5 80 -14 28 -29 42 -54 51 -37 13 -232 18 -243 6z"/>
<path d="M3510 1113 c-39 -14 -90 -82 -90 -120 0 -16 11 -18 130 -18 l130 0 0
25 c0 75 -97 139 -170 113z"/>
<path d="M4089 946 c-4 -4 -41 -11 -84 -15 -98 -11 -129 -32 -133 -89 -2 -32
1 -43 20 -56 48 -34 161 -11 194 40 15 21 17 134 3 120z"/>
<path d="M5985 939 c-22 -5 -62 -11 -89 -14 -87 -11 -124 -78 -71 -130 43 -44
148 -28 193 30 16 20 22 42 22 76 0 27 -3 48 -7 48 -5 -1 -26 -5 -48 -10z"/>
<path d="M7145 1106 c-33 -14 -62 -52 -75 -97 l-8 -28 135 -3 135 -3 -6 34
c-7 47 -32 80 -71 97 -42 17 -71 17 -110 0z"/>
</g>
</svg>
