<svg width="641" height="235" viewBox="0 0 641 235" fill="none" xmlns="http://www.w3.org/2000/svg">
<path fill-rule="evenodd" clip-rule="evenodd" d="M540.985 70.5081C549.73 70.5081 557.928 72.8459 564.989 76.9307V70.5081H588.994V123.317C588.994 133.923 597.591 142.52 608.197 142.52V166.524C595.213 166.524 583.568 160.798 575.647 151.733C566.909 160.849 554.61 166.524 540.985 166.524C514.471 166.524 492.977 145.03 492.977 118.516C492.977 92.002 514.471 70.5081 540.985 70.5081ZM540.985 142.52C554.242 142.52 564.989 131.773 564.989 118.516C564.989 105.259 554.242 94.5121 540.985 94.5121C527.728 94.5121 516.981 105.259 516.981 118.516C516.981 131.773 527.728 142.52 540.985 142.52Z" fill="#EF3333"/>
<path fill-rule="evenodd" clip-rule="evenodd" d="M80.7206 70.5081C89.8642 70.5081 98.4109 73.0643 105.685 77.5011V70.5081H128.729V159.803C128.729 185.836 106.64 205.891 80.7206 205.891C61.2262 205.891 43.8986 194.546 36.5061 177.846L60.1433 172.82C64.5444 178.768 71.9212 182.847 80.7206 182.847C95.1028 182.847 105.685 171.951 105.685 159.803V159.531C98.4109 163.968 89.8642 166.524 80.7206 166.524C54.2064 166.524 32.7124 145.03 32.7124 118.516C32.7124 92.002 54.2064 70.5081 80.7206 70.5081ZM80.7206 143.48C94.5079 143.48 105.685 132.304 105.685 118.516C105.685 104.729 94.5079 93.552 80.7206 93.552C66.9332 93.552 55.7563 104.729 55.7563 118.516C55.7563 132.304 66.9332 143.48 80.7206 143.48Z" fill="#EF3333"/>
<path fill-rule="evenodd" clip-rule="evenodd" d="M184.418 143.48C190.683 143.48 196.409 141.173 200.792 137.361L225.899 142.7C217.573 156.95 202.114 166.524 184.418 166.524C157.904 166.524 136.41 145.03 136.41 118.516C136.41 92.002 157.904 70.5081 184.418 70.5081C210.932 70.5081 232.426 92.002 232.426 118.516C232.426 122.145 232.024 125.68 231.261 129.078H161.791C165.77 137.586 174.406 143.48 184.418 143.48ZM184.418 93.552C174.406 93.552 165.77 99.4464 161.791 107.954H207.045C203.066 99.4464 194.43 93.552 184.418 93.552Z" fill="#EF3333"/>
<path d="M367.382 128.882C363.513 136.95 355.27 142.52 345.725 142.52C332.468 142.52 321.721 131.773 321.721 118.516C321.721 105.259 332.468 94.5121 345.725 94.5121C355.27 94.5121 363.513 100.082 367.382 108.149L391.2 103.085C384.773 84.1407 366.841 70.5081 345.725 70.5081C319.211 70.5081 297.717 92.002 297.717 118.516C297.717 145.03 319.211 166.524 345.725 166.524C366.841 166.524 384.773 152.891 391.2 133.947L367.382 128.882Z" fill="#EF3333"/>
<path d="M266.032 70.5081V45.5438L241.068 51.196V123.317C241.068 147.18 260.412 166.524 284.275 166.524H290.996V141.56H284.275C274.2 141.56 266.032 133.392 266.032 123.317V95.4723H290.996V70.5081H266.032Z" fill="#EF3333"/>
<path d="M424.806 74.5369V45.5438L399.842 51.196V166.524H424.806V113.715C424.806 103.64 432.974 95.4723 443.049 95.4723C453.124 95.4723 461.292 103.64 461.292 113.715V166.524H486.256V113.715C486.256 89.8527 466.912 70.5081 443.049 70.5081C436.53 70.5081 430.348 71.9518 424.806 74.5369Z" fill="#EF3333"/>
</svg>
