<?xml version="1.0" standalone="no"?>
<!DOCTYPE svg PUBLIC "-//W3C//DTD SVG 20010904//EN"
 "http://www.w3.org/TR/2001/REC-SVG-20010904/DTD/svg10.dtd">
<svg version="1.0" xmlns="http://www.w3.org/2000/svg"
 width="312.000000pt" height="244.000000pt" viewBox="0 0 312.000000 244.000000"
 preserveAspectRatio="xMidYMid meet">

<g transform="translate(0.000000,244.000000) scale(0.100000,-0.100000)"
fill="#000000" stroke="none">
<path d="M1480 2229 c-77 -15 -163 -64 -221 -126 -72 -76 -102 -128 -135 -238
-22 -76 -27 -109 -27 -210 1 -141 21 -229 82 -360 31 -66 38 -91 32 -112 -19
-70 30 -133 104 -133 52 0 89 27 105 74 21 63 -28 134 -97 140 -24 2 -33 12
-64 74 -46 93 -69 198 -69 320 0 157 41 283 123 377 62 73 202 122 295 105
120 -22 232 -161 260 -324 7 -36 11 -40 52 -52 24 -7 46 -11 49 -8 11 11 -29
166 -60 231 -44 92 -143 192 -219 220 -69 26 -151 35 -210 22z"/>
<path d="M1384 1736 c-28 -28 -34 -42 -34 -76 0 -34 6 -48 34 -76 24 -24 43
-34 65 -34 40 0 87 24 102 52 11 19 17 20 98 15 115 -8 188 -28 300 -83 175
-86 305 -246 318 -393 7 -78 -9 -135 -56 -197 -48 -64 -112 -102 -193 -116
-65 -10 -71 -10 -243 28 -13 3 -34 -8 -59 -29 l-40 -34 65 -22 c41 -15 98 -25
159 -28 151 -9 256 27 357 120 151 139 132 397 -43 587 -145 156 -335 242
-566 257 -54 3 -98 10 -98 15 0 16 -65 48 -98 48 -25 0 -43 -9 -68 -34z"/>
<path d="M928 1460 c-123 -123 -174 -262 -148 -407 14 -83 61 -174 109 -212
135 -107 308 -127 512 -62 189 61 352 191 442 353 21 37 40 59 55 63 41 10 72
53 72 100 0 53 -28 91 -79 106 -50 15 -103 -8 -125 -56 -20 -42 -20 -59 0
-101 15 -32 15 -35 -9 -76 -106 -181 -369 -337 -567 -338 -139 0 -244 56 -297
159 -66 126 -36 266 81 389 l54 57 -13 50 -12 50 -75 -75z"/>
<path d="M1610 565 c0 -72 -1 -75 -19 -65 -54 29 -136 -2 -164 -63 -33 -68
-15 -176 34 -211 30 -20 81 -21 120 0 28 14 32 14 43 -1 8 -11 23 -16 41 -13
l30 3 0 210 0 210 -42 3 -43 3 0 -76z m-19 -125 c16 -9 19 -22 19 -75 0 -55
-3 -66 -22 -79 -30 -21 -44 -20 -68 4 -32 32 -24 127 14 152 15 11 34 10 57
-2z"/>
<path d="M780 421 l0 -211 50 0 50 0 0 81 c0 77 1 80 22 77 15 -2 34 -23 58
-65 53 -91 56 -93 111 -93 27 0 49 2 49 5 0 8 -81 137 -96 154 -10 11 -7 19
21 45 41 39 53 89 32 139 -23 54 -63 70 -189 75 l-108 5 0 -212z m195 119 c8
-7 15 -27 15 -46 0 -40 -29 -64 -77 -64 l-33 0 0 66 0 67 40 -6 c23 -3 47 -11
55 -17z"/>
<path d="M1181 493 c-48 -24 -71 -67 -71 -132 0 -66 29 -117 76 -137 49 -20
123 -18 162 6 36 22 38 27 17 50 -14 16 -19 16 -59 2 -52 -19 -91 -7 -105 30
-8 23 -7 23 88 28 95 5 96 5 99 31 5 41 -23 96 -60 119 -40 24 -101 26 -147 3z
m113 -59 c31 -31 20 -44 -39 -44 -41 0 -55 4 -55 14 0 22 29 46 55 46 13 0 31
-7 39 -16z"/>
<path d="M1747 503 c-9 -8 -9 -170 -1 -212 10 -48 49 -81 98 -81 23 0 52 7 65
16 22 16 24 16 33 0 6 -10 22 -16 44 -16 l35 0 -3 148 -3 147 -42 3 -43 3 0
-109 c0 -107 0 -109 -25 -120 -34 -16 -40 -15 -59 4 -13 12 -16 38 -16 120 l0
104 -38 0 c-21 0 -42 -3 -45 -7z"/>
<path d="M2049 493 c5 -10 26 -40 45 -68 20 -27 36 -54 36 -60 0 -6 -20 -40
-45 -77 -25 -37 -45 -70 -45 -73 0 -3 20 -5 44 -5 43 0 46 2 73 50 15 27 30
50 33 50 3 0 19 -22 35 -48 28 -44 33 -47 78 -50 26 -2 47 0 47 3 0 3 -20 36
-45 73 -25 37 -45 72 -45 79 0 7 21 42 46 78 l46 65 -46 0 c-37 0 -48 -4 -59
-22 -8 -13 -22 -36 -32 -52 l-17 -29 -30 52 c-29 51 -30 51 -79 51 -44 0 -49
-2 -40 -17z"/>
</g>
</svg>
