<?xml version="1.0" standalone="no"?>
<!DOCTYPE svg PUBLIC "-//W3C//DTD SVG 20010904//EN"
 "http://www.w3.org/TR/2001/REC-SVG-20010904/DTD/svg10.dtd">
<svg version="1.0" xmlns="http://www.w3.org/2000/svg"
 width="225.000000pt" height="225.000000pt" viewBox="0 0 225.000000 225.000000"
 preserveAspectRatio="xMidYMid meet">

<g transform="translate(0.000000,225.000000) scale(0.100000,-0.100000)"
fill="#000000" stroke="none">
<path d="M0 1125 l0 -1125 1125 0 1125 0 0 1125 0 1125 -1125 0 -1125 0 0
-1125z m2220 0 l0 -1095 -1095 0 -1095 0 0 1095 0 1095 1095 0 1095 0 0 -1095z"/>
<path d="M1455 1844 c-9 -63 -14 -74 -34 -74 -12 0 -16 -10 -17 -38 l-1 -37
10 33 c7 24 16 32 33 32 23 0 24 3 24 65 0 36 -2 65 -4 65 -2 0 -7 -21 -11
-46z"/>
<path d="M1336 1854 c-4 -14 -5 -28 -3 -31 3 -2 8 8 11 23 4 14 5 28 3 31 -3
2 -8 -8 -11 -23z"/>
<path d="M1043 1634 c-66 -50 -103 -86 -103 -99 0 -18 34 -45 56 -44 14 1 13
3 -6 8 -53 15 -30 62 59 122 56 37 69 37 64 2 -3 -27 -3 -27 8 -6 14 26 6 53
-15 53 -8 0 -36 -16 -63 -36z"/>
<path d="M405 1576 c-176 -111 -176 -108 -5 -215 71 -44 134 -81 139 -81 5 0
11 6 14 13 3 8 -40 42 -120 92 -99 62 -122 81 -111 90 7 7 63 42 123 80 132
81 122 73 104 89 -12 11 -34 1 -144 -68z"/>
<path d="M1597 1647 c-3 -9 40 -41 119 -91 68 -43 122 -81 119 -86 -2 -4 -57
-40 -120 -79 -103 -65 -130 -91 -107 -104 4 -3 66 32 137 77 177 111 176 108
7 215 -71 44 -134 81 -140 81 -5 0 -12 -6 -15 -13z"/>
<path d="M1203 1603 c-83 -58 -125 -100 -119 -121 9 -26 61 -46 75 -28 8 10 4
11 -19 8 -38 -5 -50 20 -24 50 31 35 115 98 130 98 18 0 18 -28 -1 -64 -19
-37 -19 -46 0 -18 29 40 39 83 24 93 -20 12 -22 12 -66 -18z"/>
<path d="M1316 1548 c-9 -12 -16 -29 -16 -38 0 -9 -26 -35 -59 -58 -89 -65
-105 -85 -90 -110 16 -26 43 -33 65 -17 15 10 13 11 -14 7 -53 -7 -54 23 -2
72 26 24 45 35 48 28 2 -7 15 -12 28 -12 14 0 22 -4 19 -10 -3 -5 -4 -10 -1
-10 6 0 36 55 36 66 0 3 -7 1 -15 -6 -20 -17 -20 8 -1 55 16 38 32 45 39 18 3
-11 5 -7 6 10 1 33 -21 36 -43 5z"/>
<path d="M1194 1488 l-19 -23 23 19 c21 18 27 26 19 26 -2 0 -12 -10 -23 -22z"/>
<path d="M1264 1369 c-19 -22 -19 -22 4 -8 12 8 22 17 22 21 0 12 -6 9 -26
-13z"/>
<path d="M620 620 c0 -72 3 -92 15 -97 21 -7 32 4 17 19 -7 7 -12 43 -12 90 0
45 -4 78 -10 78 -6 0 -10 -37 -10 -90z"/>
<path d="M910 680 c0 -27 -2 -29 -29 -24 -34 7 -61 -23 -61 -68 0 -35 35 -72
58 -62 9 3 27 6 40 5 21 -1 22 2 22 89 0 73 -3 90 -15 90 -10 0 -15 -10 -15
-30z m-2 -81 c4 -43 -19 -69 -43 -49 -18 15 -20 61 -3 78 22 22 43 9 46 -29z"/>
<path d="M390 676 c0 -8 -6 -17 -12 -20 -10 -5 -10 -7 0 -12 7 -3 12 -24 12
-49 0 -46 21 -78 47 -73 17 4 18 23 1 23 -8 0 -14 18 -16 48 -2 37 0 47 12 47
9 0 16 5 16 10 0 6 -7 10 -15 10 -8 0 -15 7 -15 15 0 8 -7 15 -15 15 -8 0 -15
-6 -15 -14z"/>
<path d="M275 646 c-24 -18 -13 -43 26 -63 35 -18 31 -39 -8 -35 -38 2 -45
-13 -10 -22 33 -8 65 3 72 26 8 24 -8 44 -41 52 -33 9 -25 32 10 29 17 -1 26
2 23 10 -6 18 -49 20 -72 3z"/>
<path d="M476 638 c3 -13 15 -45 25 -73 l19 -50 -21 -18 c-31 -25 -14 -35 18
-11 17 13 34 44 50 89 27 81 27 85 9 85 -10 0 -19 -19 -26 -55 -6 -30 -16 -53
-21 -50 -5 4 -9 12 -9 18 0 33 -22 87 -36 87 -11 0 -14 -6 -8 -22z"/>
<path d="M696 638 c-28 -40 -18 -94 19 -108 26 -10 65 -3 65 12 0 5 -9 6 -20
3 -21 -7 -50 9 -50 26 0 5 18 9 40 9 35 0 40 3 40 23 0 51 -66 75 -94 35z m64
-18 c10 -18 8 -20 -20 -20 -18 0 -30 5 -30 13 0 32 34 37 50 7z"/>
<path d="M1490 416 c0 -8 -6 -17 -12 -20 -10 -5 -10 -7 0 -12 6 -3 12 -23 12
-44 0 -21 3 -45 6 -54 7 -17 54 -22 54 -6 0 6 -7 10 -15 10 -11 0 -15 12 -15
45 0 33 4 45 15 45 8 0 15 5 15 10 0 6 -7 10 -15 10 -8 0 -15 7 -15 15 0 8 -7
15 -15 15 -8 0 -15 -6 -15 -14z"/>
<path d="M289 396 c-45 -22 -43 -104 3 -120 14 -5 34 -5 44 -1 16 7 15 9 -10
14 -52 11 -54 91 -1 91 14 0 25 4 25 9 0 15 -37 19 -61 7z"/>
<path d="M392 388 c-7 -7 -12 -31 -12 -55 0 -32 5 -45 19 -53 50 -26 93 -1 93
53 0 21 -6 44 -12 52 -15 18 -71 20 -88 3z m72 -33 c8 -30 -8 -65 -30 -65 -18
0 -35 41 -27 69 8 31 49 28 57 -4z"/>
<path d="M530 334 c0 -49 3 -64 14 -64 11 0 16 15 18 52 2 41 7 54 21 56 14 3
17 -5 17 -52 0 -42 4 -56 14 -56 11 0 16 15 18 53 3 44 6 52 23 52 17 0 20 -8
23 -52 2 -38 7 -53 18 -53 10 0 14 12 14 43 0 84 -1 84 -96 84 l-84 0 0 -63z"/>
<path d="M740 309 c0 -72 3 -89 15 -89 10 0 15 10 15 28 0 26 3 28 29 24 42
-6 68 35 55 86 -9 36 -10 37 -61 39 l-53 1 0 -89z m86 47 c9 -38 -4 -68 -29
-64 -23 3 -35 43 -23 74 9 24 45 17 52 -10z"/>
<path d="M906 378 c-32 -46 -7 -108 43 -108 51 0 78 60 51 111 -15 28 -74 26
-94 -3z m69 -43 c0 -31 -4 -41 -19 -43 -22 -5 -36 14 -36 49 0 32 8 41 35 37
16 -2 20 -10 20 -43z"/>
<path d="M1050 333 c0 -51 3 -63 16 -63 12 0 15 10 13 45 -3 48 10 71 35 62
12 -5 16 -20 16 -57 0 -28 5 -50 10 -50 7 0 10 24 8 63 l-3 62 -47 1 -48 1 0
-64z"/>
<path d="M1200 381 c-28 -54 3 -115 56 -109 39 4 41 23 2 23 -23 0 -34 5 -36
18 -3 14 4 17 37 17 44 0 51 12 31 51 -7 13 -21 19 -45 19 -24 0 -38 -6 -45
-19z m70 -22 c0 -14 -7 -19 -25 -19 -26 0 -33 18 -14 37 16 16 39 5 39 -18z"/>
<path d="M1340 333 c0 -48 3 -63 14 -63 11 0 16 15 18 53 3 44 6 52 23 52 17
0 20 -8 23 -52 2 -29 8 -53 13 -53 6 0 9 26 7 63 l-3 62 -47 1 -48 1 0 -64z"/>
<path d="M1574 385 c-10 -24 4 -45 36 -56 16 -6 30 -18 30 -26 0 -12 -8 -14
-36 -10 -25 4 -34 2 -31 -6 2 -7 19 -13 39 -15 64 -5 78 52 18 75 -39 15 -39
33 1 33 17 0 28 4 24 10 -10 16 -75 12 -81 -5z"/>
</g>
</svg>
